# xmcd
#
# Track frame offsets: 
#        150
#        23281
#        52244
#        78808
#        104140
#        125330
#        140645
#        157429
#        177592
#        197091
#        218433
#        244486
#        266145
#
# Disc length: 4002 seconds
#
# Revision: 0
# Processed by: cddbd v1.5.2PL0 Copyright (c) Steve Scherf et al.
# Submitted via: ExactAudioCopy v0.99pb4
#
DISCID=c50fa00d
DTITLE=Godboo - Godboo live in tel aviv
DYEAR=1900
DGENRE=Blues
TTITLE0=Jesse
TTITLE1=The night i slept outside
TTITLE2=Stand up for my baby
TTITLE3=October 17
TTITLE4=play me
TTITLE5=Certain girl
TTITLE6=Little girl
TTITLE7=Rock and roll hoochie coo
TTITLE8=Cold Woman blues
TTITLE9=Little wing
TTITLE10=Teena neena noo
TTITLE11=Eye on you
TTITLE12=Voodoo child
EXTD=
EXTT0=
EXTT1=
EXTT2=
EXTT3=
EXTT4=
EXTT5=
EXTT6=
EXTT7=
EXTT8=
EXTT9=
EXTT10=
EXTT11=
EXTT12=
PLAYORDER=
